<?xml version="1.0" encoding="UTF-8"?>
<svg version="1.1" xmlns="http://www.w3.org/2000/svg" width="140" height="140">
<path d="M0 0 C0.98871094 0.4228125 1.97742188 0.845625 2.99609375 1.28125 C10.86365587 5.12017393 16.86041559 10.88754188 23 17 C23.59683594 17.56203125 24.19367188 18.1240625 24.80859375 18.703125 C36.89860095 31.15353892 40.52520931 49.47616284 40.42016602 66.12182617 C39.94097563 83.14150523 33.30742628 99.52970242 21.26953125 111.7578125 C13.02072855 119.34330942 3.65825627 125.47830343 -7 129 C-8.175625 129.391875 -9.35125 129.78375 -10.5625 130.1875 C-29.18846602 134.59000106 -48.31324645 131.68986378 -64.6875 121.75 C-81.0794838 110.66340428 -91.9103688 95.43353587 -96 76 C-97.45023725 56.42914012 -95.45399247 40.88291831 -85 24 C-84.60039063 23.34515625 -84.20078125 22.6903125 -83.7890625 22.015625 C-80.59687231 17.17377948 -76.48758777 13.62362227 -72 10 C-71.38253906 9.484375 -70.76507813 8.96875 -70.12890625 8.4375 C-50.46203947 -7.26328346 -22.90097114 -9.88606791 0 0 Z " fill="#FFFDFB" transform="translate(99,6)"/>
<path d="M0 0 C0.98871094 0.4228125 1.97742188 0.845625 2.99609375 1.28125 C10.86365587 5.12017393 16.86041559 10.88754188 23 17 C23.59683594 17.56203125 24.19367188 18.1240625 24.80859375 18.703125 C36.89860095 31.15353892 40.52520931 49.47616284 40.42016602 66.12182617 C39.94097563 83.14150523 33.30742628 99.52970242 21.26953125 111.7578125 C13.02072855 119.34330942 3.65825627 125.47830343 -7 129 C-8.175625 129.391875 -9.35125 129.78375 -10.5625 130.1875 C-29.18846602 134.59000106 -48.31324645 131.68986378 -64.6875 121.75 C-81.0794838 110.66340428 -91.9103688 95.43353587 -96 76 C-97.45023725 56.42914012 -95.45399247 40.88291831 -85 24 C-84.60039063 23.34515625 -84.20078125 22.6903125 -83.7890625 22.015625 C-80.59687231 17.17377948 -76.48758777 13.62362227 -72 10 C-71.38253906 9.484375 -70.76507813 8.96875 -70.12890625 8.4375 C-50.46203947 -7.26328346 -22.90097114 -9.88606791 0 0 Z M-74.75 22.875 C-86.69324998 37.29120527 -89.87487803 52.7100107 -89 71 C-88.64288845 74.1507184 -87.98259074 76.99046494 -87 80 C-86.74347656 80.8559375 -86.48695312 81.711875 -86.22265625 82.59375 C-81.07435059 98.32591151 -70.61081351 110.31211122 -56 118 C-39.6895047 125.05812913 -23.24727746 126.92876289 -6.21875 120.75854492 C10.8787186 113.90755518 21.95629142 101.48530798 29.21777344 84.85546875 C34.72849481 71.78384503 34.94229077 56.33187332 30 43 C22.90117827 25.95513264 12.01109042 13.22868532 -5.27734375 6.03125 C-6.17582031 5.6909375 -7.07429688 5.350625 -8 5 C-8.82628906 4.6803125 -9.65257813 4.360625 -10.50390625 4.03125 C-33.73560346 -3.62988984 -58.63265719 5.38221655 -74.75 22.875 Z " fill="#FFC423" transform="translate(99,6)"/>
<path d="M0 0 C5.79455796 2.99935114 8.75553751 7.3735326 12.375 12.6875 C15.92567962 17.80592639 19.36810535 22.60313898 23.8125 27 C26.63180431 30.03388138 27.54724033 32.02785467 27.75 36.1875 C27.2543688 41.78726306 25.06860478 45.1194502 20.9375 48.875 C14.14160031 51.47768499 7.4946175 50.5056364 0.9765625 47.67578125 C-2.58360108 46.45857117 -6.29771267 46.46414262 -10 47 C-10.60714844 47.32613281 -11.21429688 47.65226562 -11.83984375 47.98828125 C-16.7650835 50.29503911 -22.72744251 49.68981128 -28 49 C-32.05934704 47.02643128 -34.21986738 44.35675238 -36.4375 40.5 C-37.42368204 36.11696869 -37.64809379 33.26800958 -35.5625 29.1875 C-33.57182331 26.47485254 -31.2236707 24.21451004 -28.8125 21.875 C-25.2308175 18.39935416 -22.24783139 14.78608066 -19.3125 10.75 C-9.65094569 -2.33231188 -9.65094569 -2.33231188 0 0 Z " fill="#FFC423" transform="translate(74,63)"/>
<path d="M0 0 C5.47218294 2.93629329 8.01594502 8.32430174 10 14 C10.87887736 19.16719278 10.60373302 22.79253395 8.25 27.5 C4.9912195 31.12086722 3.38502162 31.82372452 -1.4375 32.4375 C-6.00987036 31.87598083 -7.19443031 30.58489461 -10 27 C-13.44222475 21.89601158 -13.96003553 16.9784031 -13 11 C-10.26313093 3.65099971 -8.48905133 -0.83225993 0 0 Z " fill="#FFC527" transform="translate(38,49)"/>
<path d="M0 0 C4.08266053 3.15478313 5.97458173 5.96612848 7 11 C7.78002187 17.8726251 7.36767089 22.69114204 3.38671875 28.44140625 C0.76391254 31.38929266 -0.95507261 31.99492755 -4.875 32.4375 C-8.31515269 32.34896666 -8.96367406 32.0276393 -11.875 29.8125 C-15.59859072 24.88421816 -16.60950578 21.19664215 -16 15 C-13.82498339 7.10320675 -9.81933172 -2.08921952 0 0 Z " fill="#FFC527" transform="translate(89,26)"/>
<path d="M0 0 C3.5990509 0.92283356 5.10722561 2.7908825 7.4375 5.625 C10.21709974 11.4360099 10.63858499 17.8422014 8.6796875 24.01171875 C6.9638485 27.66632072 5.25063705 30.97607587 1.4375 32.625 C-1.69968535 33.1970056 -4.44048896 33.33176542 -7.5625 32.625 C-10.69444918 30.21524145 -13.23835955 26.77358814 -13.8359375 22.8125 C-14.17685737 15.46961045 -11.86602951 9.48200042 -7.0703125 3.8828125 C-4.86362555 1.85906333 -2.90825475 0.70933043 0 0 Z " fill="#FFC526" transform="translate(105.5625,49.375)"/>
<path d="M0 0 C5.48677536 5.38879723 7.1300536 10.32748036 7.3125 17.875 C7.26604856 23.31645421 6.7460555 26.04583031 3 30 C0.34136255 32.10857453 -0.98701207 32.00023614 -4.4375 31.9375 C-9.21921415 30.67915417 -11.57793435 28.35514031 -14.11328125 24.15625 C-16.48927805 18.37849568 -15.59559901 11.64236613 -13.25 6 C-10.03486882 -0.2510216 -7.12300037 -2.33339667 0 0 Z " fill="#FFC526" transform="translate(60,26)"/>
</svg>
